<?xml version="1.0" encoding="iso-8859-1"?>
<!-- Uploaded to: SVG Repo, www.svgrepo.com, Generator: SVG Repo Mixer Tools -->
<svg fill="#000000" height="800px" width="800px" version="1.1" id="Layer_1" xmlns="http://www.w3.org/2000/svg" xmlns:xlink="http://www.w3.org/1999/xlink" 
	 viewBox="-21 16 554 512" xml:space="preserve">
    <g>
        <g stroke-width="40" stroke="black" fill="white">
            <path d="M 505.403 406.394 L 295.389 58.102 c -8.274 -13.721 -23.367 -22.245 -39.39 -22.245 c -16.023 0 -31.116 8.524 -39.391 22.246 L 6.595 406.394 c -8.551 14.182 -8.804 31.95 -0.661 46.37 c 8.145 14.42 23.491 23.378 40.051 23.378 h 420.028 c 16.56 0 31.907 -8.958 40.052 -23.379 C 514.208 438.342 513.955 420.574 505.403 406.394 z z"/>
        </g>
    </g>
    <g>
        <g>
            <path d="M256.154,173.005c-12.68,0-22.576,6.804-22.576,18.866c0,36.802,4.329,89.686,4.329,126.489
                c0.001,9.587,8.352,13.607,18.248,13.607c7.422,0,17.937-4.02,17.937-13.607c0-36.802,4.329-89.686,4.329-126.489
                C278.421,179.81,268.216,173.005,256.154,173.005z"/>
        </g>
    </g>
    <g>
        <g>
            <path d="M256.465,353.306c-13.607,0-23.814,10.824-23.814,23.814c0,12.68,10.206,23.814,23.814,23.814
                c12.68,0,23.505-11.134,23.505-23.814C279.97,364.13,269.144,353.306,256.465,353.306z"/>
        </g>
    </g>
</svg>